<svg xmlns="http://www.w3.org/2000/svg" width="48.018" height="14" viewBox="0 0 48.018 14">
  <g id="Group_455" data-name="Group 455" transform="translate(-1055.312 -3137.999)">
    <path id="Path_655" data-name="Path 655" d="M-1011.871-3055.095c-.107-.024-.3-.051-.3-.456v-1.06c0-.237.271-.264.415-.245a3.3,3.3,0,0,0,.357.026c1.729.167,3.514-1.525,3.893-1.908l-.2.557q-.265.7-.552,1.283a4.689,4.689,0,0,1-.656,1,2.717,2.717,0,0,1-.85.658,2.545,2.545,0,0,1-1.132.236h-.065A4.409,4.409,0,0,1-1011.871-3055.095Zm10.3-1.894c-2.077,0-2.169-.734-2.169-2.26v-6.361a2.348,2.348,0,0,1,.411-1.634,1.86,1.86,0,0,1,1.458-.431h15.436a2.981,2.981,0,0,1,2.106,1.12c.621.632,2.49,2.966,2.763,3.358a1.6,1.6,0,0,1,.269.914,1.79,1.79,0,0,1-.256.934,40.839,40.839,0,0,1-2.88,3.223,3.159,3.159,0,0,1-2,1.137Zm7.751-2.842v.7a.393.393,0,0,0,.077.29.314.314,0,0,0,.234.081h1.317a.407.407,0,0,0,.3-.093.341.341,0,0,0,.072-.258c0-.01,0-.02,0-.027v-4.136c0-1.689-.753-2.545-2.238-2.545h-.021a2.232,2.232,0,0,0-1.153.321,4.267,4.267,0,0,0-1.024.9,1.787,1.787,0,0,0-.728-.921,2.4,2.4,0,0,0-1.261-.3,2.917,2.917,0,0,0-1.784.614l-.071.062c-1.4,1.208-2.14,2.383-2.14,3.4v2.59c0,.006,0,.015,0,.023a.394.394,0,0,0,.078.291.313.313,0,0,0,.234.081h1.316a.407.407,0,0,0,.3-.093.338.338,0,0,0,.072-.258c0-.012,0-.02,0-.027v-4.189c.021-.028.043-.059.069-.093a1.823,1.823,0,0,1,1.346-.93.678.678,0,0,1,.612.286,1.856,1.856,0,0,1,.187.965v3.272l0,.673v.023a.39.39,0,0,0,.078.291.311.311,0,0,0,.233.081h1.3a.406.406,0,0,0,.3-.093.336.336,0,0,0,.071-.258v-4.217c.027-.032.057-.071.089-.113.263-.34.7-.909,1.326-.909a.7.7,0,0,1,.624.287,1.82,1.82,0,0,1,.191.964v3.273h0Zm2.928-2.422a3.206,3.206,0,0,0,3.343,3.429,3.027,3.027,0,0,0,2.98-1.964.184.184,0,0,0-.033-.159.229.229,0,0,0-.194-.1H-985.9a.472.472,0,0,0-.394.2,1.321,1.321,0,0,1-1.238.749c-.963,0-1.507-.617-1.533-1.74h4.272a.393.393,0,0,0,.3-.105.542.542,0,0,0,.11-.4c-.08-2.107-1.314-3.417-3.22-3.417A3.287,3.287,0,0,0-990.89-3062.253Zm-11.346-3v1.681a5.241,5.241,0,0,1,1.929-1.648v-.042c0-.222-.026-.406-.352-.406h-1.265C-1002.215-3065.665-1002.236-3065.509-1002.236-3065.25Zm-7.995,7.772a1.848,1.848,0,0,0,.266-.679,2.631,2.631,0,0,0-.22-.712c-.658-1.8-2.386-6.539-2.431-6.651-.055-.139-.055-.489.39-.489h1.262a.635.635,0,0,1,.613.507c.11.307,1.5,4.277,1.5,4.277s1.455-4.053,1.566-4.36a.553.553,0,0,1,.573-.424h1.373c.353,0,.354.185.284.416-.043.143-1.047,2.938-1.807,5.054a6.821,6.821,0,0,1-3.546,3.306A1.7,1.7,0,0,0-1010.231-3057.478Zm-8.94-.675a2.422,2.422,0,0,1-.863-.431,1.991,1.991,0,0,1-.566-.714,2.289,2.289,0,0,1-.2-.994,2.532,2.532,0,0,1,1.206-2.233,7.144,7.144,0,0,1,3.412-.539c.522,0,.657-.288.657-.72a1.207,1.207,0,0,0-.377-.833,1.571,1.571,0,0,0-1.029-.274,1.8,1.8,0,0,0-1.1.284.9.9,0,0,0-.3.414c-.162.3-.147.409-.482.409h-1.28a.33.33,0,0,1-.31-.432q.434-1.972,3.553-1.972c.315,0,.6.009.85.028a4.819,4.819,0,0,1,.694.1,4.064,4.064,0,0,1,.59.18,3.122,3.122,0,0,1,.538.28,2.11,2.11,0,0,1,.425.364,1.858,1.858,0,0,1,.3.488,2.688,2.688,0,0,1,.18.654,5.691,5.691,0,0,1,.057.851v4.584c0,.265-.068.48-.369.48h-1.488c-.288,0-.362-.215-.362-.457v-.243a5.462,5.462,0,0,1-1.166.662,4.71,4.71,0,0,1-1.468.208h-.034A4.014,4.014,0,0,1-1019.171-3058.153Zm1.227-3.345a1.018,1.018,0,0,0-.576.99.913.913,0,0,0,.354.794,1.534,1.534,0,0,0,.921.256,1.836,1.836,0,0,0,1.755-.8v-.9c0-.251-.151-.615-.727-.629h-.1A4.3,4.3,0,0,0-1017.944-3061.5Zm-10.971,3.317a.393.393,0,0,1-.4-.447v-2.745a6.342,6.342,0,0,0,2.293,1.459h0v1.286s.051.447-.369.447Zm-.4-4.535v-5.686a.609.609,0,0,1,.646-.6h3.507a11.7,11.7,0,0,1,1.2.057,4.785,4.785,0,0,1,1.024.213,3.183,3.183,0,0,1,.84.421,2.484,2.484,0,0,1,.647.691,3.17,3.17,0,0,1,.382.9,4.179,4.179,0,0,1,.117,1.013,3.2,3.2,0,0,1-1.128,2.669,5.142,5.142,0,0,1-3.27.9h-1.037a.659.659,0,0,0-.634.728v1.128A5.363,5.363,0,0,1-1029.311-3062.716Zm2.293-4.068v2.325c0,.29.152.486.393.486h.985q.452,0,.878-.038a2.108,2.108,0,0,0,.75-.2,1.227,1.227,0,0,0,.519-.487,1.783,1.783,0,0,0,.193-.9,1.787,1.787,0,0,0-.179-.88,1.123,1.123,0,0,0-.5-.465,2.017,2.017,0,0,0-.745-.18q-.43-.028-.921-.028h-1A.342.342,0,0,0-1027.018-3066.784Zm40.813,3.807h-2.862a1.472,1.472,0,0,1,1.458-1.473c.792,0,1.317.551,1.4,1.473h0Z" transform="translate(2084.624 6207)" fill="#37373b"/>
  </g>
</svg>
