<svg xmlns="http://www.w3.org/2000/svg" width="37.15" height="12" viewBox="0 0 37.15 12">
  <g id="Group_454" data-name="Group 454" transform="translate(-1060.298 -3138)">
    <path id="Path_654" data-name="Path 654" d="M1875.468-337.633c-.037,1.672,1.486,2.6,2.638,3.158s1.56.929,1.56,1.449c0,.78-.929,1.115-1.783,1.152a6.007,6.007,0,0,1-3.083-.743l-.557,2.526a9.363,9.363,0,0,0,3.344.632c3.158,0,5.2-1.56,5.238-3.975,0-3.046-4.235-3.232-4.2-4.607,0-.409.409-.854,1.263-.966a5.408,5.408,0,0,1,2.972.52l.52-2.452a7.971,7.971,0,0,0-2.823-.52c-2.972-.037-5.089,1.56-5.089,3.826m12.928-3.641a1.333,1.333,0,0,0-1.263.854l-4.5,10.736h3.158l.632-1.746h3.864l.371,1.746h2.786l-2.489-11.591H1888.4m.446,3.121.891,4.347h-2.489l1.6-4.347m-17.2-3.121-2.489,11.591h3.009l2.489-11.591h-3.009m-4.421,0L1864.1-333.4l-1.263-6.687a1.416,1.416,0,0,0-1.375-1.189h-5.089l-.074.334a12.115,12.115,0,0,1,2.972,1c.446.223.557.446.706,1l2.377,9.25h3.158l4.867-11.591h-3.158" transform="translate(-796 3479.46)" fill="#37373b"/>
  </g>
</svg>
