<svg xmlns="http://www.w3.org/2000/svg" xmlns:xlink="http://www.w3.org/1999/xlink" width="14" height="14" viewBox="0 0 14 14">
  <defs>
    <linearGradient id="linear-gradient" x1="1.059" y1="-0.066" x2="0.062" y2="1" gradientUnits="objectBoundingBox">
      <stop offset="0" stop-color="#edd185"/>
      <stop offset="1" stop-color="#e8bd70"/>
    </linearGradient>
  </defs>
  <g id="Group_458" data-name="Group 458" transform="translate(-405 -13)">
    <g id="Group_3" data-name="Group 3" transform="translate(404.998 13)">
      <g id="Group_2" data-name="Group 2" transform="translate(0.002)">
        <path id="Path_651" data-name="Path 651" d="M-384.242,13a6.642,6.642,0,0,1-2.543-.74,13.865,13.865,0,0,1-4.591-3.592,12.627,12.627,0,0,1-2.24-3.732,4.825,4.825,0,0,1-.373-2.077,1.687,1.687,0,0,1,.531-1.138c.355-.338.69-.69,1.04-1.034a.987.987,0,0,1,1.483,0c.283.277.559.56.839.84s.542.542.813.815a.984.984,0,0,1,0,1.517c-.34.344-.679.688-1.025,1.023a.213.213,0,0,0-.052.274,6.133,6.133,0,0,0,.929,1.489A10.775,10.775,0,0,0-386.838,9c.216.134.454.233.679.355a.206.206,0,0,0,.286-.052c.34-.35.688-.694,1.034-1.038a.98.98,0,0,1,1.482,0q.836.83,1.667,1.663a.991.991,0,0,1-.006,1.509c-.314.318-.649.621-.947.953a1.816,1.816,0,0,1-1.436.613Q-384.16,13-384.242,13Zm-.707-9.06a3.713,3.713,0,0,0-2.121-1.058l.152-1.081a4.781,4.781,0,0,1,2.738,1.367,4.8,4.8,0,0,1,1.344,2.592l-1.075.184A3.714,3.714,0,0,0-384.95,3.935Zm1.948-1.9A6.87,6.87,0,0,0-386.928.081L-386.777-1a7.929,7.929,0,0,1,4.545,2.266A7.983,7.983,0,0,1-380,5.569l-1.075.184A6.869,6.869,0,0,0-383,2.039Z" transform="translate(394 1)" fill="url(#linear-gradient)"/>
      </g>
    </g>
  </g>
</svg>
