<svg xmlns="http://www.w3.org/2000/svg" xmlns:xlink="http://www.w3.org/1999/xlink" width="14" height="13.964" viewBox="0 0 14 13.964">
  <defs>
    <linearGradient id="linear-gradient" x1="1" x2="0" y2="1" gradientUnits="objectBoundingBox">
      <stop offset="0" stop-color="#edd185"/>
      <stop offset="1" stop-color="#e8bd70"/>
    </linearGradient>
  </defs>
  <g id="Group_460" data-name="Group 460" transform="translate(-683 -13)">
    <g id="Group_9" data-name="Group 9" transform="translate(683 13)">
      <path id="Union_1" data-name="Union 1" d="M-1133.014-.919c.154-.352.264-.724.4-1.1a7.682,7.682,0,0,1,2.395,1.063,7.007,7.007,0,0,1-4.514,1.922A2.882,2.882,0,0,0-1133.014-.919Zm-6.765-.038a7.616,7.616,0,0,1,2.408-1.049c.016.047.033.1.049.146a7.22,7.22,0,0,0,.669,1.621,2.327,2.327,0,0,0,1.386,1.2A6.968,6.968,0,0,1-1139.779-.957Zm4.11.687a5.041,5.041,0,0,1-.806-1.625c-.031-.094-.058-.189-.088-.292a9.019,9.019,0,0,1,3.14-.005,9.861,9.861,0,0,1-.34.928c-.162.337-.37.653-.558.978l-.008.011a.884.884,0,0,1-.671.4A.885.885,0,0,1-1135.669-.27Zm3.269-2.539c.1-.935.2-1.858.3-2.8h4.1v.137c-.044.267-.081.536-.133.8a6.6,6.6,0,0,1-.932,2.3c-.177.278-.379.542-.574.819A8.743,8.743,0,0,0-1132.4-2.809Zm-8.286.816a6.865,6.865,0,0,1-1.29-3.385.535.535,0,0,0-.024-.09V-5.6h4.1c.1.935.2,1.855.3,2.794a8.7,8.7,0,0,0-2.758,1.241C-1140.472-1.715-1140.585-1.849-1140.686-1.993Zm3.646-3.605h4.064a12.635,12.635,0,0,1-.264,2.569c-.589-.04-1.173-.111-1.757-.11s-1.168.072-1.767.113A14.537,14.537,0,0,1-1137.04-5.6Zm4.941-.825c-.1-.934-.2-1.854-.3-2.79a8.781,8.781,0,0,0,2.762-1.264c.218.313.448.613.644.932a6.882,6.882,0,0,1,.93,2.529c.023.151.042.3.063.455v.137Zm-9.9,0v-.136c.044-.268.081-.537.133-.8a6.637,6.637,0,0,1,.94-2.308c.175-.275.374-.534.566-.8a8.65,8.65,0,0,0,2.761,1.262c-.1.935-.2,1.855-.3,2.791Zm4.96-.008A15.085,15.085,0,0,1-1136.767-9c.6.04,1.18.11,1.764.11s1.17-.069,1.769-.109a14.676,14.676,0,0,1,.274,2.565Zm.474-3.4a5.5,5.5,0,0,1,.884-1.905l.017-.022a.766.766,0,0,1,1.332,0,4.974,4.974,0,0,1,.807,1.625c.031.094.058.19.093.3a9.109,9.109,0,0,1-1.554.133A9.652,9.652,0,0,1-1136.567-9.832Zm3.672-.981a5.185,5.185,0,0,0-.681-1.328,2.109,2.109,0,0,0-1.205-.859h.192c.265.036.532.063.795.111a6.983,6.983,0,0,1,3.54,1.792c.009.009.015.021.033.044a7.86,7.86,0,0,1-2.4,1.056C-1132.713-10.274-1132.8-10.544-1132.895-10.813Zm-6.879-.253c.076-.071.145-.14.218-.2a7.027,7.027,0,0,1,3.877-1.7l.268-.032h.192a2.052,2.052,0,0,0-1.1.721,4.448,4.448,0,0,0-.681,1.19c-.138.355-.259.716-.392,1.085A7.6,7.6,0,0,1-1139.774-11.066Z" transform="translate(1142 13)" fill="url(#linear-gradient)"/>
    </g>
  </g>
</svg>
